<mxfile host="Electron" agent="Mozilla/5.0 (Macintosh; Intel Mac OS X 10_15_7) AppleWebKit/537.36 (KHTML, like Gecko) draw.io/24.7.8 Chrome/128.0.6613.36 Electron/32.0.1 Safari/537.36" version="24.7.8">
  <diagram name="Pagina-1" id="vWnjCvaK05jcN1L_lA8Q">
    <mxGraphModel dx="954" dy="727" grid="1" gridSize="10" guides="1" tooltips="1" connect="1" arrows="1" fold="1" page="1" pageScale="1" pageWidth="1169" pageHeight="827" math="0" shadow="0">
      <root>
        <mxCell id="0" />
        <mxCell id="1" parent="0" />
        <mxCell id="FG0AEerKHnc85r6CdZZK-13" value="" style="rounded=0;whiteSpace=wrap;html=1;align=right;fillColor=none;" parent="1" vertex="1">
          <mxGeometry x="160" y="150" width="240" height="490" as="geometry" />
        </mxCell>
        <mxCell id="FG0AEerKHnc85r6CdZZK-1" value="5G Antenna no 2" style="fontColor=#0066CC;verticalAlign=top;verticalLabelPosition=bottom;labelPosition=center;align=center;html=1;outlineConnect=0;fillColor=#CCCCCC;strokeColor=#6881B3;gradientColor=none;gradientDirection=north;strokeWidth=2;shape=mxgraph.networks.radio_tower;" parent="1" vertex="1">
          <mxGeometry x="210" y="450" width="55" height="100" as="geometry" />
        </mxCell>
        <mxCell id="FG0AEerKHnc85r6CdZZK-2" value="5G Antenna no 1" style="fontColor=#0066CC;verticalAlign=top;verticalLabelPosition=bottom;labelPosition=center;align=center;html=1;outlineConnect=0;fillColor=#CCCCCC;strokeColor=#6881B3;gradientColor=none;gradientDirection=north;strokeWidth=2;shape=mxgraph.networks.radio_tower;" parent="1" vertex="1">
          <mxGeometry x="210" y="250" width="55" height="100" as="geometry" />
        </mxCell>
        <mxCell id="FG0AEerKHnc85r6CdZZK-4" value="" style="fontColor=#0066CC;verticalAlign=top;verticalLabelPosition=bottom;labelPosition=center;align=center;html=1;outlineConnect=0;fillColor=#CCCCCC;strokeColor=#6881B3;gradientColor=none;gradientDirection=north;strokeWidth=2;shape=mxgraph.networks.desktop_pc;" parent="1" vertex="1">
          <mxGeometry x="330" y="365" width="30" height="60" as="geometry" />
        </mxCell>
        <mxCell id="FG0AEerKHnc85r6CdZZK-5" value="" style="endArrow=none;html=1;rounded=0;entryX=0;entryY=0.5;entryDx=0;entryDy=0;entryPerimeter=0;" parent="1" source="FG0AEerKHnc85r6CdZZK-1" target="FG0AEerKHnc85r6CdZZK-4" edge="1">
          <mxGeometry width="50" height="50" relative="1" as="geometry">
            <mxPoint x="220" y="555" as="sourcePoint" />
            <mxPoint x="270" y="505" as="targetPoint" />
          </mxGeometry>
        </mxCell>
        <mxCell id="FG0AEerKHnc85r6CdZZK-8" value="" style="endArrow=none;html=1;rounded=0;" parent="1" source="FG0AEerKHnc85r6CdZZK-2" target="FG0AEerKHnc85r6CdZZK-4" edge="1">
          <mxGeometry width="50" height="50" relative="1" as="geometry">
            <mxPoint x="220" y="555" as="sourcePoint" />
            <mxPoint x="270" y="505" as="targetPoint" />
          </mxGeometry>
        </mxCell>
        <mxCell id="FG0AEerKHnc85r6CdZZK-14" value="" style="rounded=0;whiteSpace=wrap;html=1;align=right;fillColor=none;" parent="1" vertex="1">
          <mxGeometry x="440" y="150" width="200" height="490" as="geometry" />
        </mxCell>
        <mxCell id="FG0AEerKHnc85r6CdZZK-15" value="Public serving&lt;div&gt;network&lt;/div&gt;" style="ellipse;shape=cloud;whiteSpace=wrap;html=1;" parent="1" vertex="1">
          <mxGeometry x="480" y="440" width="120" height="80" as="geometry" />
        </mxCell>
        <mxCell id="FG0AEerKHnc85r6CdZZK-16" value="" style="shape=link;html=1;rounded=0;entryX=0.16;entryY=0.55;entryDx=0;entryDy=0;entryPerimeter=0;" parent="1" source="FG0AEerKHnc85r6CdZZK-4" target="FG0AEerKHnc85r6CdZZK-15" edge="1">
          <mxGeometry width="100" relative="1" as="geometry">
            <mxPoint x="360" y="390" as="sourcePoint" />
            <mxPoint x="460" y="390" as="targetPoint" />
          </mxGeometry>
        </mxCell>
        <mxCell id="FG0AEerKHnc85r6CdZZK-17" value="" style="rounded=0;whiteSpace=wrap;html=1;align=right;fillColor=none;" parent="1" vertex="1">
          <mxGeometry x="670" y="150" width="150" height="490" as="geometry" />
        </mxCell>
        <mxCell id="FG0AEerKHnc85r6CdZZK-21" value="Server Farm&lt;div&gt;Network&lt;/div&gt;" style="ellipse;shape=cloud;whiteSpace=wrap;html=1;" parent="1" vertex="1">
          <mxGeometry x="680" y="345" width="120" height="80" as="geometry" />
        </mxCell>
        <mxCell id="FG0AEerKHnc85r6CdZZK-22" value="Internet" style="ellipse;shape=cloud;whiteSpace=wrap;html=1;" parent="1" vertex="1">
          <mxGeometry x="590" y="670" width="120" height="80" as="geometry" />
        </mxCell>
        <mxCell id="FG0AEerKHnc85r6CdZZK-24" value="" style="shape=link;html=1;rounded=0;exitX=0.667;exitY=0.875;exitDx=0;exitDy=0;exitPerimeter=0;" parent="1" source="FG0AEerKHnc85r6CdZZK-15" target="FG0AEerKHnc85r6CdZZK-22" edge="1">
          <mxGeometry width="100" relative="1" as="geometry">
            <mxPoint x="360" y="470" as="sourcePoint" />
            <mxPoint x="460" y="470" as="targetPoint" />
          </mxGeometry>
        </mxCell>
        <mxCell id="FG0AEerKHnc85r6CdZZK-25" value="" style="shape=link;html=1;rounded=0;" parent="1" source="FG0AEerKHnc85r6CdZZK-21" target="FG0AEerKHnc85r6CdZZK-22" edge="1">
          <mxGeometry width="100" relative="1" as="geometry">
            <mxPoint x="360" y="470" as="sourcePoint" />
            <mxPoint x="460" y="470" as="targetPoint" />
          </mxGeometry>
        </mxCell>
        <mxCell id="_k2zbsfP3xR1wmcRhKqZ-5" style="edgeStyle=orthogonalEdgeStyle;rounded=0;orthogonalLoop=1;jettySize=auto;html=1;entryX=0.33;entryY=0.5;entryDx=0;entryDy=0;entryPerimeter=0;" edge="1" parent="1" source="_k2zbsfP3xR1wmcRhKqZ-1" target="FG0AEerKHnc85r6CdZZK-2">
          <mxGeometry relative="1" as="geometry" />
        </mxCell>
        <mxCell id="_k2zbsfP3xR1wmcRhKqZ-1" value="&lt;span style=&quot;text-align: right; text-wrap: wrap;&quot;&gt;UPSIDE&lt;/span&gt;&lt;div&gt;&lt;span style=&quot;text-align: right; text-wrap: wrap; background-color: initial;&quot;&gt;UEs&lt;/span&gt;&lt;/div&gt;" style="sketch=0;pointerEvents=1;shadow=0;dashed=0;html=1;strokeColor=none;labelPosition=center;verticalLabelPosition=bottom;verticalAlign=top;align=center;fillColor=#505050;shape=mxgraph.mscae.intune.device_group" vertex="1" parent="1">
          <mxGeometry x="30" y="275" width="50" height="50" as="geometry" />
        </mxCell>
        <mxCell id="_k2zbsfP3xR1wmcRhKqZ-3" value="&lt;div style=&quot;text-align: right;&quot;&gt;&lt;span style=&quot;background-color: initial; text-wrap: wrap;&quot;&gt;Public&lt;/span&gt;&lt;/div&gt;&lt;div&gt;&lt;span style=&quot;text-align: right; text-wrap: wrap; background-color: initial;&quot;&gt;UEs&lt;/span&gt;&lt;/div&gt;" style="sketch=0;pointerEvents=1;shadow=0;dashed=0;html=1;strokeColor=none;labelPosition=center;verticalLabelPosition=bottom;verticalAlign=top;align=center;fillColor=#505050;shape=mxgraph.mscae.intune.device_group" vertex="1" parent="1">
          <mxGeometry x="30" y="475" width="50" height="50" as="geometry" />
        </mxCell>
        <mxCell id="_k2zbsfP3xR1wmcRhKqZ-7" value="" style="endArrow=classic;html=1;rounded=0;exitX=1;exitY=0.5;exitDx=0;exitDy=0;exitPerimeter=0;entryX=0.33;entryY=0.5;entryDx=0;entryDy=0;entryPerimeter=0;" edge="1" parent="1" source="_k2zbsfP3xR1wmcRhKqZ-1" target="FG0AEerKHnc85r6CdZZK-1">
          <mxGeometry width="50" height="50" relative="1" as="geometry">
            <mxPoint x="290" y="400" as="sourcePoint" />
            <mxPoint x="340" y="350" as="targetPoint" />
          </mxGeometry>
        </mxCell>
        <mxCell id="_k2zbsfP3xR1wmcRhKqZ-8" style="edgeStyle=orthogonalEdgeStyle;rounded=0;orthogonalLoop=1;jettySize=auto;html=1;entryX=0.33;entryY=0.5;entryDx=0;entryDy=0;entryPerimeter=0;" edge="1" parent="1" source="_k2zbsfP3xR1wmcRhKqZ-3" target="FG0AEerKHnc85r6CdZZK-1">
          <mxGeometry relative="1" as="geometry" />
        </mxCell>
        <mxCell id="_k2zbsfP3xR1wmcRhKqZ-9" value="" style="endArrow=classic;html=1;rounded=0;exitX=1;exitY=0.5;exitDx=0;exitDy=0;exitPerimeter=0;entryX=0.33;entryY=0.5;entryDx=0;entryDy=0;entryPerimeter=0;" edge="1" parent="1" source="_k2zbsfP3xR1wmcRhKqZ-3" target="FG0AEerKHnc85r6CdZZK-2">
          <mxGeometry width="50" height="50" relative="1" as="geometry">
            <mxPoint x="90" y="310" as="sourcePoint" />
            <mxPoint x="268" y="510" as="targetPoint" />
          </mxGeometry>
        </mxCell>
        <mxCell id="_k2zbsfP3xR1wmcRhKqZ-10" value="&lt;span style=&quot;text-align: right; text-wrap: wrap;&quot;&gt;RAN&lt;/span&gt;" style="text;html=1;align=center;verticalAlign=middle;resizable=0;points=[];autosize=1;strokeColor=none;fillColor=none;" vertex="1" parent="1">
          <mxGeometry x="255" y="120" width="50" height="30" as="geometry" />
        </mxCell>
        <mxCell id="_k2zbsfP3xR1wmcRhKqZ-11" value="&lt;span style=&quot;color: rgb(0, 0, 0); font-family: Helvetica; font-size: 12px; font-style: normal; font-variant-ligatures: normal; font-variant-caps: normal; font-weight: 400; letter-spacing: normal; orphans: 2; text-align: right; text-indent: 0px; text-transform: none; widows: 2; word-spacing: 0px; -webkit-text-stroke-width: 0px; white-space: normal; background-color: rgb(251, 251, 251); text-decoration-thickness: initial; text-decoration-style: initial; text-decoration-color: initial; display: inline !important; float: none;&quot;&gt;WindTre&amp;nbsp;&lt;/span&gt;&lt;span style=&quot;text-align: right;&quot;&gt;Mobile&amp;nbsp; Network&lt;/span&gt;" style="text;whiteSpace=wrap;html=1;" vertex="1" parent="1">
          <mxGeometry x="467.5" y="120" width="145" height="30" as="geometry" />
        </mxCell>
        <mxCell id="_k2zbsfP3xR1wmcRhKqZ-12" value="&lt;span style=&quot;color: rgb(0, 0, 0); font-family: Helvetica; font-size: 12px; font-style: normal; font-variant-ligatures: normal; font-variant-caps: normal; font-weight: 400; letter-spacing: normal; orphans: 2; text-align: right; text-indent: 0px; text-transform: none; widows: 2; word-spacing: 0px; -webkit-text-stroke-width: 0px; white-space: normal; background-color: rgb(251, 251, 251); text-decoration-thickness: initial; text-decoration-style: initial; text-decoration-color: initial; display: inline !important; float: none;&quot;&gt;Server&amp;nbsp;&amp;nbsp;&lt;/span&gt;&lt;span style=&quot;text-align: right;&quot;&gt;Farm&lt;/span&gt;" style="text;whiteSpace=wrap;html=1;" vertex="1" parent="1">
          <mxGeometry x="710" y="120" width="70" height="50" as="geometry" />
        </mxCell>
        <mxCell id="_k2zbsfP3xR1wmcRhKqZ-13" value="" style="shape=link;html=1;rounded=0;entryX=0.25;entryY=0.25;entryDx=0;entryDy=0;entryPerimeter=0;exitX=0.875;exitY=0.5;exitDx=0;exitDy=0;exitPerimeter=0;" edge="1" parent="1" source="_k2zbsfP3xR1wmcRhKqZ-15" target="FG0AEerKHnc85r6CdZZK-21">
          <mxGeometry width="100" relative="1" as="geometry">
            <mxPoint x="590" y="409" as="sourcePoint" />
            <mxPoint x="705" y="340" as="targetPoint" />
          </mxGeometry>
        </mxCell>
        <mxCell id="_k2zbsfP3xR1wmcRhKqZ-15" value="Private APN" style="ellipse;shape=cloud;whiteSpace=wrap;html=1;" vertex="1" parent="1">
          <mxGeometry x="480" y="300" width="120" height="80" as="geometry" />
        </mxCell>
        <mxCell id="_k2zbsfP3xR1wmcRhKqZ-16" value="" style="shape=link;html=1;rounded=0;entryX=0.16;entryY=0.55;entryDx=0;entryDy=0;entryPerimeter=0;exitX=1;exitY=0.5;exitDx=0;exitDy=0;exitPerimeter=0;" edge="1" parent="1" source="FG0AEerKHnc85r6CdZZK-4" target="_k2zbsfP3xR1wmcRhKqZ-15">
          <mxGeometry width="100" relative="1" as="geometry">
            <mxPoint x="370" y="350" as="sourcePoint" />
            <mxPoint x="509" y="435" as="targetPoint" />
          </mxGeometry>
        </mxCell>
      </root>
    </mxGraphModel>
  </diagram>
</mxfile>
